<svg xmlns="http://www.w3.org/2000/svg" width="64" height="64" viewBox="0 0 64 64">
  <defs>
    <linearGradient id="g" x1="0" y1="0" x2="1" y2="1">
      <stop offset="0" stop-color="#D4AF37"/>
      <stop offset="0.5" stop-color="#F5C542"/>
      <stop offset="1" stop-color="#D4AF37"/>
    </linearGradient>
  </defs>
  <rect x="6" y="6" width="52" height="52" rx="14" fill="url(#g)"/>
  <path d="M22 44V20h13c6 0 9 3 9 7 0 3-2 5-4 6 3 1 5 3 5 7 0 5-4 8-10 8H22zm8-19h4c2 0 3-1 3-2s-1-2-3-2h-4v4zm0 13h5c2 0 3-1 3-3s-1-3-3-3h-5v6z" fill="#000"/>
</svg>
